<?xml version="1.0" encoding="UTF-8" standalone="no"?>
<svg
   width="38"
   height="38"
   viewBox="0 0 38 38"
   fill="none"
   version="1.1"
   id="svg6"
   sodipodi:docname="gm.svg"
   inkscape:version="1.1.1 (3bf5ae0d25, 2021-09-20)"
   xmlns:inkscape="http://www.inkscape.org/namespaces/inkscape"
   xmlns:sodipodi="http://sodipodi.sourceforge.net/DTD/sodipodi-0.dtd"
   xmlns="http://www.w3.org/2000/svg"
   xmlns:svg="http://www.w3.org/2000/svg">
  <defs
     id="defs10" />
  <sodipodi:namedview
     id="namedview8"
     pagecolor="#ffffff"
     bordercolor="#666666"
     borderopacity="1.0"
     inkscape:pageshadow="2"
     inkscape:pageopacity="0"
     inkscape:pagecheckerboard="true"
     showgrid="false"
     inkscape:zoom="12.006454"
     inkscape:cx="8.3704983"
     inkscape:cy="4.5808697"
     inkscape:window-width="1863"
     inkscape:window-height="1006"
     inkscape:window-x="57"
     inkscape:window-y="49"
     inkscape:window-maximized="1"
     inkscape:current-layer="svg6" />
  <circle
     cx="19"
     cy="19"
     r="18"
     stroke="white"
     id="circle2" />
  <text
     xml:space="preserve"
     style="font-style:normal;font-weight:normal;font-size:15.3272px;line-height:1.25;font-family:sans-serif;fill:#ffffff;fill-opacity:1;stroke:none;stroke-width:0.383181"
     x="6.7674279"
     y="24.579309"
     id="text9991"><tspan
       sodipodi:role="line"
       id="tspan9989"
       x="6.7674279"
       y="24.579309"
       style="fill:#ffffff;stroke-width:0.383181" /></text>
  <g
     id="g33"
     transform="matrix(0.07483774,0,0,0.07483774,19.867492,18.405348)">
    <path
       d="m -126.3505,4.662166 h -15.45 c -1.5276,0 -2.9927,0.6069 -4.0729,1.6871 -1.0802,1.0802 -1.6871,2.5452 -1.6871,4.0729 v 30.92 c 0.005,1.4627 -0.549,2.872 -1.5492,3.939 -1.0003,1.067 -2.3708,1.712 -3.8308,1.801 h -0.25 c -2.1267,0.113 -4.6933,0.17 -7.7,0.17 -4.9965,0.11 -9.9575,-0.865 -14.54,-2.86 -4.0429,-1.81 -7.5999,-4.5514 -10.38,-8 -2.8766,-3.6767 -4.9942,-7.8882 -6.23,-12.39 -1.443,-5.2088 -2.1433,-10.5953 -2.08,-16 0,-12.1267 2.7967,-21.6833 8.39,-28.67 5.5933,-6.9867 14.68,-10.48 27.26,-10.48 5.2959,-0.0825 10.5754,0.6115 15.67,2.06 2.59,0.79 5,1.64 7.29,2.58 0.7172,0.2919 1.4862,0.4355 2.2604,0.4219 0.7743,-0.0135 1.5378,-0.1838 2.2443,-0.5007 0.7066,-0.3168 1.3417,-0.7736 1.8668,-1.3427 0.5251,-0.5691 0.9294,-1.2388 1.1885,-1.9685 l 4,-11.05 c 0.4805,-1.3288 0.452,-2.7884 -0.0797,-4.09755 -0.5318,-1.30911 -1.5293,-2.37507 -2.8003,-2.99244 v 0 c -2.6252,-1.21619 -5.344,-2.21942 -8.13,-3 -3.8657,-1.10948 -7.7966,-1.97783 -11.77,-2.60001 -5.0677,-0.790038 -10.1912,-1.167932 -15.32,-1.129988 -8.0048,-0.05306 -15.9519,1.356738 -23.45,4.159988 -7.1955,2.64517 -13.7444,6.7941 -19.21,12.17 -5.5726,5.6058 -9.93294,12.2978 -12.80999,19.66 -3.10667,7.74 -4.66333,16.6333 -4.67,26.68 -0.15253,9.0137 1.2827,17.9839 4.24,26.5 2.55778,7.3078 6.64929,13.984 11.99999,19.58 5.29,5.375 11.7031,9.514 18.78,12.12 7.8433,2.861 16.1419,4.271 24.49,4.16 8.8763,0.142 17.7452,-0.585 26.48,-2.17 4.6667,-0.933 8.4833,-1.833 11.45,-2.7 1.1925,-0.35 2.2391,-1.077 2.9841,-2.072 0.744,-0.996 1.147,-2.205 1.146,-3.448 v -49.5 c -0.013,-1.5138 -0.622,-2.9615 -1.694,-4.0301 -1.0724,-1.0686 -2.5223,-1.6721 -4.0361,-1.6799 z"
       fill="#ffffff"
       id="path2" />
    <path
       d="m 29.8696,-25.637834 c -0.42,-4.18 -0.853,-8.18 -1.3,-12 -0.22,-1.9333 -0.447,-3.8133 -0.68,-5.64 -0.13,-1 -0.26,-2.07 -0.4,-3.08 0,-0.39 -0.1,-0.77 -0.15,-1.15 l -0.15,-1.15001 c -0.028,-0.20632 -0.071,-0.41022 -0.13,-0.60998 -0.012,-0.0514 -0.029,-0.10161 -0.05,-0.15001 -0.019,-0.07143 -0.042,-0.14157 -0.07,-0.20999 -0.079,-0.19983 -0.173,-0.39367 -0.28,-0.58 -0.112,-0.18768 -0.235,-0.36806 -0.37,-0.54001 -0.078,-0.09796 -0.162,-0.19144 -0.25,-0.28 -0.348,-0.3629 -0.758,-0.6609 -1.21,-0.88001 -0.579,-0.28523 -1.215,-0.43241 -1.86,-0.42999 h -18.35 c -0.771,-0.0011 -1.527,0.20781 -2.188,0.60423 -0.66,0.39643 -1.2,0.96539 -1.562,1.64577 -1.793,3.33333 -3.793,7.2867 -6,11.86 -2.04,4.2 -4.143,8.66 -6.31,13.38 l -2.19,4.8 c -0.74,1.6267 -1.477,3.2667 -2.21,4.92 -0.74,1.65 -1.47,3.3 -2.2,5 -1.46,3.3333 -2.913,6.7033 -4.36,10.11 l -4.24,10 c -0.327,0.7689 -0.873,1.4247 -1.57,1.8856 -0.697,0.4609 -1.514,0.7067 -2.35,0.7067 -0.836,0 -1.653,-0.2458 -2.35,-0.7067 -0.697,-0.4609 -1.243,-1.1167 -1.57,-1.8856 l -4.24,-10 c -2.9,-6.8133 -5.823,-13.48 -8.77,-20 -2.947,-6.52 -5.783,-12.58 -8.51,-18.18 -2.207,-4.54 -4.207,-8.49333 -6,-11.86 -0.363,-0.68117 -0.905,-1.25052 -1.568,-1.64693 -0.662,-0.3964 -1.42,-0.60489 -2.192,-0.60307 h -19.54 c -0.648,-0.0025 -1.288,0.14464 -1.87,0.43001 -0.448,0.22171 -0.854,0.51945 -1.2,0.87999 -0.089,0.08856 -0.172,0.18204 -0.25,0.28 -0.154,0.19484 -0.291,0.40224 -0.41,0.62001 -0.067,0.11156 -0.124,0.22865 -0.17,0.34999 0,0.12 -0.1,0.24 -0.14,0.36 -0.081,0.24787 -0.141,0.5021 -0.18,0.76001 -0.48,3.5 -0.943,7.16669 -1.39,10.99999 -0.22,1.92 -0.44,3.8833 -0.66,5.89 -0.22,2 -0.433,4.05 -0.64,6.15 -0.24,2.4667 -0.477,4.96 -0.71,7.48 -0.167,1.8867 -0.337,3.79 -0.51,5.71 -0.493,5.7533 -0.95,11.6333 -1.37,17.64 -0.187,2.6667 -0.373,5.3333 -0.56,8 -0.54,8 -1.047,16.0367 -1.52,24.11 -0.267,4.5267 -0.52,8.943 -0.76,13.25 -0.24,4.307 -0.46,8.5 -0.66,12.58 -0.015,0.193 -0.015,0.387 0,0.58 0.013,0.168 0.037,0.335 0.07,0.5 0.196,0.96 0.719,1.822 1.479,2.44 0.76,0.618 1.711,0.954 2.691,0.95 h 18.36 c 0.559,0.002 1.113,-0.107 1.63,-0.32 0.248,-0.105 0.485,-0.232 0.71,-0.38 0.227,-0.144 0.438,-0.312 0.63,-0.5 0.795,-0.767 1.258,-1.816 1.29,-2.92 0.2,-6.46 0.437,-13.227 0.71,-20.3 0.113,-2.84 0.227,-5.7233 0.34,-8.65 0.06,-1.46 0.13,-2.94 0.19,-4.43 0.08,-1.96 0.167,-3.9233 0.26,-5.89 0.293,-5.8933 0.627,-11.81 1,-17.75 0.04,-0.7272 0.264,-1.4324 0.65,-2.05 0.142,-0.2256 0.309,-0.4337 0.5,-0.62 0.36,-0.3764 0.787,-0.6817 1.26,-0.9 0.234,-0.1148 0.479,-0.2085 0.73,-0.28 0.375,-0.0996 0.762,-0.15 1.15,-0.15 0.582,-0.0046 1.158,0.1147 1.69,0.35 0.182,0.072 0.356,0.1624 0.52,0.27 0.256,0.1639 0.494,0.355 0.71,0.57 0.226,0.2314 0.427,0.4861 0.6,0.76 0.12,0.1957 0.227,0.3996 0.32,0.61 2.507,5.8 4.987,11.5967 7.44,17.39 2.453,5.7933 4.82,11.3333 7.1,16.62 1.78,4.12 3.35,7.787 4.71,11 0.073,0.172 0.157,0.338 0.25,0.5 l 0.1,0.15 c 0.201,0.32 0.447,0.609 0.73,0.86 0.158,0.138 0.325,0.265 0.5,0.38 -0.87,-4.658 -0.791,-9.4446 0.232,-14.0718 1.024,-4.6272 2.971,-9.0003 5.724,-12.8574 2.753,-3.857 6.257,-7.1187 10.301,-9.5898 4.044,-2.471 8.544,-4.1005 13.233,-4.791 5.552,-6.0271 12.743,-10.302 20.69,-12.3 5.7,-5.9647 12.807,-10.4007 20.67,-12.9 -0.3,-3.76 -0.633,-7.46 -1,-11.1 z"
       fill="#ffffff"
       id="path4" />
    <path
       d="m 63.5696,-40.687834 c -0.457,-0.5749 -1.024,-1.054 -1.666,-1.4099 -0.643,-0.3559 -1.349,-0.5817 -2.079,-0.6644 -0.73,-0.0826 -1.47,-0.0206 -2.176,0.1826 -0.706,0.2033 -1.365,0.5436 -1.939,1.0017 l -0.05,0.05 h -0.06 c -5.223,4.202 -9.702,9.2524 -13.25,14.94 -0.389,0.6231 -0.651,1.3167 -0.772,2.0412 -0.12,0.7244 -0.097,1.4655 0.069,2.181 0.166,0.7155 0.471,1.3913 0.898,1.9889 0.426,0.5975 0.967,1.1052 1.59,1.4939 0.623,0.3887 1.317,0.6509 2.041,0.7715 0.725,0.1207 1.466,0.0975 2.181,-0.0682 0.716,-0.1658 1.392,-0.4708 1.989,-0.8978 0.598,-0.4269 1.105,-0.9674 1.494,-1.5905 2.603,-4.1621 5.819,-7.9076 9.54,-11.11 l 0.16,-0.14 0.08,-0.07 0.05,-0.05 h 0.05 0.48 l 0.06,-0.06 0.1,-0.07 c 0.7,-0.4304 1.296,-1.0098 1.747,-1.697 0.45,-0.6872 0.744,-1.4652 0.859,-2.2788 0.116,-0.8135 0.051,-1.6425 -0.191,-2.4279 -0.241,-0.7855 -0.653,-1.508 -1.205,-2.1163 z m -22.24,28.49 c -0.4,-0.0953 -0.809,-0.1423 -1.22,-0.14 -1.27,0.0012 -2.501,0.4346 -3.492,1.2289 -0.99,0.7942 -1.681,1.902 -1.958,3.1411 v 0.07 0.06 c -0.17,0.79 -0.33,1.58 -0.46,2.38 3.462,-1.0006 7.047,-1.509 10.65,-1.51 0.31,0 0.61,0 0.92,0 -0.052,-1.2417 -0.517,-2.4305 -1.321,-3.3779 -0.805,-0.9475 -1.902,-1.5993 -3.119,-1.8521 z m 107.36,-4 c -0.53,-1.3858 -1.59,-2.504 -2.945,-3.1088 -1.355,-0.6048 -2.894,-0.6466 -4.28,-0.1162 -1.386,0.5304 -2.504,1.5896 -3.109,2.9446 -0.605,1.3549 -0.646,2.8946 -0.116,4.2804 0.668,1.751 1.229,3.541 1.68,5.36 4.031,0.0349 8.031,0.71 11.85,2 -0.651,-3.8688 -1.683,-7.6638 -3.08,-11.33 z m -10.16,-17.14 v -0.06 c -4.346,-5.1064 -9.522,-9.4438 -15.31,-12.83 -1.28,-0.75056 -2.805,-0.96204 -4.241,-0.5879 -1.435,0.37413 -2.663,1.30323 -3.414,2.5829 -0.751,1.2797 -0.962,2.8051 -0.588,4.2407 0.374,1.4356 1.303,2.6637 2.583,3.4143 0.85,0.5 1.68,1 2.5,1.57 l 0.16,0.1 0.12,0.09 h 0.09 0.08 0.06 0.16 0.08 l 0.06,0.05 0.09,0.07 0.09,0.07 0.09,0.07 0.17,0.13 c 2.817,2.1291 5.392,4.5603 7.68,7.25 v 0 c 0.473,0.5614 1.053,1.0241 1.705,1.3616 0.652,0.3375 1.365,0.5432 2.096,0.6054 0.732,0.0622 1.469,-0.0203 2.169,-0.2428 0.699,-0.2226 1.349,-0.5808 1.91,-1.0542 0.561,-0.4734 1.024,-1.0528 1.362,-1.705 0.337,-0.6522 0.543,-1.3645 0.605,-2.0962 0.062,-0.7318 -0.02,-1.4686 -0.243,-2.1684 -0.222,-0.6999 -0.581,-1.349 -1.054,-1.9104 z m -34.19,-20.11 h -0.14 -0.07 -0.07 c -3.681,-0.67869 -7.417,-1.013465 -11.16,-0.999999 -6.7,-0.04745 -13.36,1.034349 -19.7,3.199999 -1.266,0.42382 -2.34,1.28623 -3.026,2.43165 -0.686,1.14543 -0.941,2.49846 -0.718,3.81505 0.223,1.3166 0.91,2.5101 1.936,3.3651 1.025,0.8551 2.323,1.3155 3.658,1.2982 0.631,10e-4 1.256,-0.1073 1.85,-0.32 l 0.42,-0.14 h 0.07 0.1 0.07 0.07 0.11 0.07 0.18 0.38 0.24 0.08 0.09 0.08 0.07 0.11 0.16 0.14 0.14 0.14 c 2.316,-0.6462 4.675,-1.1241 7.06,-1.43 h 0.19 0.19 0.41 0.16 0.07 0.12 8.38 0.34 0.12 0.42 c 1.43,0.12 2.85,0.3 4.24,0.55 h 0.23 0.18 0.47 c 0.722,0.1399 1.465,0.1361 2.186,-0.0111 0.721,-0.1472 1.405,-0.4349 2.015,-0.8467 0.61,-0.4119 1.132,-0.9397 1.538,-1.5535 0.405,-0.6138 0.686,-1.30142 0.826,-2.02369 0.14,-0.72227 0.136,-1.46503 -0.011,-2.18584 -0.147,-0.72081 -0.435,-1.40556 -0.847,-2.01518 -0.412,-0.60962 -0.94,-1.13215 -1.553,-1.53777 -0.614,-0.40561 -1.302,-0.68636 -2.024,-0.82621 z"
       fill="#ffffff"
       id="path6" />
    <path
       d="m 93.9096,-31.337834 c -8.125,0.0093 -16.039,2.5896 -22.608,7.3713 -6.569,4.7817 -11.456,11.5196 -13.962,19.2487 3.183,1.0983 6.208,2.6077 9,4.49 1.569,-5.9203 5.005,-11.1773 9.797,-14.9915 4.792,-3.8142 10.686,-5.9825 16.807,-6.1834 6.122,-0.2009 12.145,1.5763 17.177,5.068 5.032,3.4918 8.805,8.5122 10.759,14.3169 2.914,-1.6012 6.018,-2.8276 9.24,-3.65 -2.645,-7.4951 -7.546,-13.9872 -14.03,-18.5838 -6.484,-4.5966 -14.232,-7.0721 -22.18,-7.0862 z"
       fill="#ffffff"
       id="path8" />
    <path
       d="m 171.0296,9.332166 c -4.779,-6.6197 -11.516,-11.5725 -19.26,-14.16 -3.819,-1.29 -7.819,-1.9651 -11.85,-2 h -0.33 c -3.183,0.0035 -6.354,0.3998 -9.44,1.18 -3.221,0.8224 -6.326,2.0488 -9.24,3.65 -4.36,2.4022 -8.219,5.6167 -11.37,9.47 -0.73,0.11 -1.46,0.24 -2.18,0.4 -3.819,-1.6341 -8.01,-2.2004 -12.126,-1.6386 -4.116,0.5618 -8.002,2.2307 -11.244,4.8286 -2.496,-0.9119 -5.102,-1.4902 -7.75,-1.72 -4.704,-6.5056 -11.306,-11.396 -18.9,-14 -3.742,-1.3071 -7.667,-2.019 -11.63,-2.11 -0.31,0 -0.61,0 -0.92,0 -3.599,-0.025 -7.185,0.4564 -10.65,1.43 -0.81,0.24 -1.6,0.5 -2.39,0.78 -6.647,2.391 -12.521,6.5379 -17,12 -2.734,0.415 -5.401,1.1919 -7.93,2.31 -5.206,2.2722 -9.714,5.8894 -13.06,10.48 -0.61,0 -1.22,0 -1.82,0.08 -5.486,0.432 -10.682,2.6402 -14.8,6.29 -2.478,2.2017 -4.496,4.8715 -5.938,7.8557 -1.442,2.9843 -2.28,6.2242 -2.466,9.5335 -0.186,3.3088 0.284,6.6228 1.383,9.7498 1.099,3.127 2.806,6.006 5.021,8.471 2.348,2.638 5.225,4.753 8.443,6.209 3.217,1.455 6.705,2.219 10.237,2.241 h 174.47 c 7.91,0.007 15.517,-3.038 21.236,-8.502 5.719,-5.464 9.108,-12.925 9.462,-20.8267 0.353,-7.9017 -2.357,-15.6349 -7.566,-21.5875 -5.208,-5.9526 -12.513,-9.6652 -20.392,-10.3638 z m -2.74,51.33 h -174.47 c -4.023,-0.008 -7.879,-1.614 -10.718,-4.464 -2.839,-2.851 -4.43,-6.713 -4.422,-10.736 0.008,-4.0233 1.614,-7.8787 4.464,-10.718 2.851,-2.8393 6.713,-4.43 10.736,-4.422 h 1.05 c 1.422,0.1014 2.823,0.4044 4.16,0.9 1.564,-4.1312 4.346,-7.6892 7.979,-10.2021 3.633,-2.5129 7.944,-3.8619 12.361,-3.8679 h 0.7 c 2.928,-4.8845 7.24,-8.7896 12.39,-11.22 l 0.71,-0.33 c 3.538,-1.5542 7.355,-2.3741 11.22,-2.41 h 0.34 c 5.4,0.0088 10.688,1.5375 15.26,4.4113 4.571,2.8738 8.241,6.9765 10.59,11.8387 4.833,-0.6849 9.752,0.379 13.87,3 0.682,0.4247 1.333,0.8958 1.95,1.41 0.785,-1.8008 1.967,-3.4003 3.459,-4.6784 1.491,-1.2781 3.253,-2.2016 5.153,-2.7011 1.9,-0.4995 3.888,-0.562 5.815,-0.1827 1.928,0.3792 3.744,1.1902 5.313,2.3722 2.562,-1.0164 5.294,-1.5356 8.05,-1.53 h 0.7 c 1.915,-3.1904 4.428,-5.9814 7.4,-8.22 4.976,-3.733 11.029,-5.7507 17.25,-5.75 0.6,0 1.19,0 1.78,0.06 3.738,0.221 7.394,1.1794 10.76,2.82 5.81,2.8391 10.497,7.5477 13.31,13.37 2.77,-0.3011 5.571,-0.0397 8.238,0.7684 2.666,0.8081 5.141,2.1463 7.278,3.9344 2.136,1.7881 3.889,3.9892 5.154,6.4714 1.265,2.4821 2.016,5.1942 2.207,7.9735 0.192,2.7793 -0.18,5.5687 -1.093,8.2003 -0.913,2.633 -2.348,5.053 -4.219,7.117 -1.871,2.064 -4.14,3.729 -6.67,4.895 -2.531,1.166 -5.27,1.809 -8.055,1.89 z"
       fill="#ffffff"
       id="path10" />
  </g>
</svg>
